<?xml version="1.0" encoding="utf-8"?>
<!-- Generator: Adobe Illustrator 19.0.0, SVG Export Plug-In . SVG Version: 6.00 Build 0)  -->
<svg xmlns="http://www.w3.org/2000/svg" xmlns:xlink="http://www.w3.org/1999/xlink" version="1.1" id="Layer_1" x="0px" y="0px" viewBox="0 0 1400 980" style="enable-background:new 0 0 1400 980;" xml:space="preserve">
<style type="text/css">
	.st0{fill:#000421;}
	.st1{fill:#010829;}
	.st2{fill:#7B8EAA;}
	.st3{fill:#71839E;}
	.st4{fill:#0A0F28;}
	.st5{fill:url(#SVGID_1_);}
	.st6{fill:#EA9E7D;}
	.st7{fill:#FFCDBB;}
	.st8{fill:#EA9A65;}
	.st9{fill:#F9503A;}
	.st10{fill:#FFEDE1;}
	.st11{fill:#FFDEAE;}
	.st12{fill:#EAC4B4;}
	.st13{fill:#F7703C;}
	.st14{fill:#C45735;}
	.st15{fill:#F2B37E;}
	.st16{fill:#F2984B;}
	.st17{fill:#F2A15C;}
	.st18{fill:#F2A666;}
	.st19{fill:#F2AE74;}
	.st20{fill:#E08C46;}
	.st21{fill:#F2BE91;}
	.st22{fill:#605A55;}
	.st23{fill:#E5E5E5;}
	.st24{fill:#FFAA71;}
	.st25{fill:#FF7517;}
	.st26{fill:#7C3505;}
	.st27{fill:#FFF9F5;}
	.st28{fill:url(#SVGID_2_);}
	.st29{fill:#FFF791;}
	.st30{fill:url(#SVGID_3_);}
	.st31{fill:#FFDE8F;}
	.st32{fill:#5A5A5E;}
</style>

<g>
	<g>
		<path class="st1" d="M1329.9,638.4c21-3.6,18.4-19.2-2.7-15.5C1316.7,624.7,1319.4,640.2,1329.9,638.4z"/>
		<path class="st1" d="M1272.1,680.3c10.5-1.8,7.8-17.3-2.7-15.5C1258.9,666.6,1261.6,682.2,1272.1,680.3z"/>
		<path class="st1" d="M1206,736.6c21-3.6,18.4-19.2-2.7-15.5C1192.8,722.9,1195.5,738.4,1206,736.6z"/>
		<path class="st1" d="M1136.9,713.4c21-3.6,18.4-19.2-2.7-15.5C1123.7,699.7,1126.4,715.2,1136.9,713.4z"/>
		<path class="st1" d="M1086.5,734.9c21.1-3.6,18.4-19.2-2.7-15.5C1073.3,721.2,1076,736.7,1086.5,734.9z"/>
		<path class="st1" d="M996.6,779.3c21-3.6,18.4-19.2-2.7-15.5C972.9,767.4,975.6,782.9,996.6,779.3z"/>
		<path class="st1" d="M900.3,786.3c10.5-1.8,7.8-17.4-2.7-15.5C887.1,772.6,889.7,788.2,900.3,786.3z"/>
		<path class="st1" d="M850.9,814.1c10.5-1.8,7.8-17.4-2.7-15.5C837.7,800.4,840.4,815.9,850.9,814.1z"/>
		<path class="st1" d="M801.5,841.8c10.5-1.8,7.8-17.4-2.7-15.5C788.3,828.1,791,843.7,801.5,841.8z"/>
		<path class="st1" d="M717.8,859.5c21.1-3.6,18.4-19.2-2.7-15.5C694.1,847.7,696.8,863.2,717.8,859.5z"/>
		<path class="st1" d="M585.6,847.2c21.1-3.6,18.4-19.2-2.7-15.5C561.9,835.3,564.6,850.9,585.6,847.2z"/>
		<path class="st1" d="M689.3,819.7c10.5-1.8,7.8-17.4-2.7-15.5C676,806,678.7,821.5,689.3,819.7z"/>
		<path class="st1" d="M750.2,796.3c10.5-1.8,7.8-17.3-2.7-15.5C726.5,784.4,729.2,800,750.2,796.3z"/>
		<path class="st1" d="M740.6,740.4c21-3.7,18.3-19.2-2.7-15.5C727.3,726.7,730,742.2,740.6,740.4z"/>
		<path class="st1" d="M846.9,728.4c10.5-1.8,7.8-17.3-2.7-15.5C823.1,716.5,825.8,732.1,846.9,728.4z"/>
		<path class="st1" d="M835,784.9c10.5-1.8,7.8-17.4-2.7-15.5C811.2,773,813.9,788.5,835,784.9z"/>
		<path class="st1" d="M935.9,741.8c21-3.6,18.3-19.2-2.7-15.5C912.2,729.9,914.9,745.4,935.9,741.8z"/>
		<path class="st1" d="M1019,721c21.1-3.6,18.4-19.2-2.7-15.5C1005.8,707.3,1008.5,722.8,1019,721z"/>
		<path class="st1" d="M949.4,694.6c10.5-1.8,7.8-17.4-2.7-15.5C925.7,682.8,928.4,698.3,949.4,694.6z"/>
		<path class="st1" d="M1052,660.9c10.5-1.8,7.8-17.4-2.7-15.5C1038.8,647.2,1041.5,662.7,1052,660.9z"/>
		<path class="st1" d="M1127.8,660.6c21.1-3.6,18.4-19.2-2.7-15.5C1114.6,646.9,1117.3,662.4,1127.8,660.6z"/>
		<path class="st1" d="M1215.8,667.7c10.5-1.8,7.8-17.4-2.7-15.5C1192,655.8,1194.7,671.4,1215.8,667.7z"/>
		<path class="st1" d="M1216.6,610c10.5-1.8,7.8-17.4-2.7-15.5C1203.4,596.3,1206.1,611.8,1216.6,610z"/>
		<path class="st1" d="M1291.9,606.6c10.5-1.8,7.8-17.4-2.7-15.5C1278.7,592.8,1281.4,608.4,1291.9,606.6z"/>
		<path class="st1" d="M1094,778.4c21-3.6,18.4-19.2-2.7-15.5C1080.8,764.7,1083.5,780.2,1094,778.4z"/>
		<path class="st1" d="M945.1,794.6c21-3.7,18.4-19.2-2.7-15.5C921.3,782.7,924,798.2,945.1,794.6z"/>
		<path class="st1" d="M1004.7,701.1c10.5-1.8,7.8-17.4-2.7-15.5C981,689.2,983.7,704.7,1004.7,701.1z"/>
		<path class="st1" d="M704.4,781.9c10.5-1.8,7.8-17.4-2.7-15.5C680.6,770,683.3,785.5,704.4,781.9z"/>
		<path class="st1" d="M663.1,856.2c10.5-1.8,7.8-17.4-2.7-15.5C639.3,844.3,642,859.9,663.1,856.2z"/>
		<path class="st1" d="M572.6,897.5l-2.7-15.5C548.9,885.6,551.6,901.1,572.6,897.5z"/>
		<path class="st1" d="M523.8,928.3c21-3.6,18.4-19.2-2.7-15.5C510.6,914.6,513.3,930.1,523.8,928.3z"/>
	</g>
	<g>
		<path class="st1" d="M809,697.6c21-3.6,18.4-19.2-2.7-15.5C795.8,683.9,798.5,699.5,809,697.6z"/>
		<path class="st1" d="M751.3,739.6c10.5-1.8,7.8-17.4-2.7-15.5C738.1,725.9,740.7,741.4,751.3,739.6z"/>
		<path class="st1" d="M685.1,795.9c21.1-3.6,18.4-19.2-2.7-15.5C671.9,782.2,674.6,797.7,685.1,795.9z"/>
		<path class="st1" d="M616.1,772.6c21-3.6,18.4-19.2-2.7-15.5C602.9,758.9,605.5,774.5,616.1,772.6z"/>
		<path class="st1" d="M565.6,794.2c21-3.6,18.4-19.2-2.7-15.5C552.4,780.5,555.1,796,565.6,794.2z"/>
		<path class="st1" d="M475.7,838.5c21-3.6,18.4-19.2-2.7-15.5C452,826.6,454.7,842.2,475.7,838.5z"/>
		<path class="st1" d="M379.4,845.6c10.5-1.8,7.8-17.4-2.7-15.5C366.2,831.9,368.9,847.4,379.4,845.6z"/>
		<path class="st1" d="M330,873.4c10.5-1.8,7.8-17.3-2.7-15.5C316.8,859.7,319.5,875.2,330,873.4z"/>
		<path class="st1" d="M280.6,901.1c10.5-1.8,7.8-17.4-2.7-15.5C267.4,887.4,270.1,902.9,280.6,901.1z"/>
		<path class="st1" d="M197,918.8c21.1-3.6,18.4-19.2-2.7-15.5C173.2,906.9,175.9,922.4,197,918.8z"/>
		<path class="st1" d="M64.8,906.5c21.1-3.6,18.4-19.2-2.7-15.5C41,894.6,43.7,910.2,64.8,906.5z"/>
		<path class="st1" d="M168.4,879c10.5-1.8,7.8-17.4-2.7-15.5C155.2,865.2,157.9,880.8,168.4,879z"/>
		<path class="st1" d="M229.4,855.6c10.5-1.8,7.8-17.3-2.7-15.5C205.6,843.7,208.3,859.2,229.4,855.6z"/>
		<path class="st1" d="M219.7,799.7c21-3.6,18.4-19.2-2.7-15.5C206.5,786,209.2,801.5,219.7,799.7z"/>
		<path class="st1" d="M326,787.7c10.5-1.8,7.8-17.4-2.7-15.5C302.3,775.8,305,791.3,326,787.7z"/>
		<path class="st1" d="M303.6,846c21.1-3.6,18.4-19.2-2.7-15.5C290.4,832.2,293,847.8,303.6,846z"/>
		<path class="st1" d="M415,801.1c10.5-1.8,7.8-17.3-2.7-15.5C391.3,789.2,394,804.7,415,801.1z"/>
		<path class="st1" d="M498.2,780.3c10.5-1.8,7.8-17.4-2.7-15.5C484.9,766.5,487.6,782.1,498.2,780.3z"/>
		<path class="st1" d="M418,755.7c21-3.6,18.4-19.2-2.7-15.5C404.8,742,407.5,757.6,418,755.7z"/>
		<path class="st1" d="M531.1,720.2c10.5-1.8,7.8-17.4-2.7-15.5C517.9,706.5,520.6,722,531.1,720.2z"/>
		<path class="st1" d="M606.9,719.8c21-3.6,18.4-19.2-2.7-15.5C593.7,706.1,596.4,721.7,606.9,719.8z"/>
		<path class="st1" d="M694.9,727c10.5-1.8,7.8-17.3-2.7-15.5C671.1,715.1,673.8,730.6,694.9,727z"/>
		<path class="st1" d="M695.7,669.2c10.5-1.8,7.8-17.3-2.7-15.5C682.5,655.6,685.2,671.1,695.7,669.2z"/>
		<path class="st1" d="M771,665.8c10.5-1.8,7.8-17.4-2.7-15.5C757.8,652.1,760.5,667.7,771,665.8z"/>
		<path class="st1" d="M897.3,644l-2.7-15.5C873.5,632.1,876.2,647.6,897.3,644z"/>
		<path class="st1" d="M942.9,594.5c10.5-1.8,7.8-17.3-2.7-15.5C919.2,582.6,921.9,598.1,942.9,594.5z"/>
		<path class="st1" d="M573.1,837.7c21.1-3.6,18.4-19.2-2.7-15.5C559.9,824,562.6,839.5,573.1,837.7z"/>
		<path class="st1" d="M424.2,853.8c10.5-1.8,7.8-17.3-2.7-15.5C400.4,842,403.1,857.5,424.2,853.8z"/>
		<path class="st1" d="M483.9,760.3c10.5-1.8,7.8-17.4-2.7-15.5C460.1,748.5,462.8,764,483.9,760.3z"/>
		<path class="st1" d="M183.5,841.1c10.5-1.8,7.8-17.4-2.7-15.5C159.8,829.3,162.5,844.8,183.5,841.1z"/>
		<path class="st1" d="M142.2,915.5c10.5-1.8,7.8-17.4-2.7-15.5C118.4,903.6,121.1,919.1,142.2,915.5z"/>
	</g>
</g>
<g>
	<g>
		<path class="st2" d="M1111.9,99.5c3.2-0.6,2.8-2.9-0.4-2.4C1109.9,97.4,1110.3,99.7,1111.9,99.5z"/>
		<path class="st2" d="M1103.1,105.9c1.6-0.3,1.2-2.6-0.4-2.4C1101.1,103.8,1101.5,106.1,1103.1,105.9z"/>
		<path class="st2" d="M1093,114.4c3.2-0.6,2.8-2.9-0.4-2.4C1091,112.3,1091.4,114.7,1093,114.4z"/>
		<path class="st2" d="M1082.5,110.9c3.2-0.6,2.8-2.9-0.4-2.4C1080.5,108.8,1080.9,111.2,1082.5,110.9z"/>
		<path class="st2" d="M1074.8,114.2c3.2-0.6,2.8-2.9-0.4-2.4C1072.8,112.1,1073.2,114.5,1074.8,114.2z"/>
		<path class="st2" d="M1061.1,120.9c3.2-0.6,2.8-2.9-0.4-2.4C1057.5,119.1,1057.9,121.5,1061.1,120.9z"/>
		<path class="st2" d="M1046.4,122c1.6-0.3,1.2-2.6-0.4-2.4C1044.4,119.9,1044.8,122.3,1046.4,122z"/>
		<path class="st2" d="M1038.9,126.2c1.6-0.3,1.2-2.6-0.4-2.4C1036.9,124.2,1037.3,126.5,1038.9,126.2z"/>
		<path class="st2" d="M1031.4,130.5c1.6-0.3,1.2-2.6-0.4-2.4C1029.4,128.4,1029.8,130.8,1031.4,130.5z"/>
		<path class="st2" d="M1018.6,133.2c3.2-0.6,2.8-2.9-0.4-2.4C1015,131.4,1015.4,133.7,1018.6,133.2z"/>
		<path class="st2" d="M998.5,131.3c3.2-0.6,2.8-2.9-0.4-2.4C994.9,129.5,995.3,131.8,998.5,131.3z"/>
		<path class="st2" d="M1014.3,127.1c1.6-0.3,1.2-2.6-0.4-2.4C1012.3,125,1012.7,127.4,1014.3,127.1z"/>
		<path class="st2" d="M1023.6,123.5c1.6-0.3,1.2-2.6-0.4-2.4C1020,121.7,1020.4,124.1,1023.6,123.5z"/>
		<path class="st2" d="M1022.1,115c3.2-0.6,2.8-2.9-0.4-2.4C1020.1,112.9,1020.5,115.3,1022.1,115z"/>
		<path class="st2" d="M1038.3,113.2c1.6-0.3,1.2-2.6-0.4-2.4C1034.7,111.4,1035.1,113.7,1038.3,113.2z"/>
		<path class="st2" d="M1036.5,121.8c1.6-0.3,1.2-2.6-0.4-2.4C1032.9,120,1033.3,122.3,1036.5,121.8z"/>
		<path class="st2" d="M1051.9,115.2c3.2-0.6,2.8-2.9-0.4-2.4C1048.2,113.4,1048.6,115.8,1051.9,115.2z"/>
		<path class="st2" d="M1064.5,112.1c3.2-0.6,2.8-2.9-0.4-2.4C1062.5,110,1062.9,112.3,1064.5,112.1z"/>
		<path class="st2" d="M1053.9,108c1.6-0.3,1.2-2.6-0.4-2.4C1050.3,106.2,1050.7,108.6,1053.9,108z"/>
		<path class="st2" d="M1069.5,102.9c1.6-0.3,1.2-2.6-0.4-2.4C1067.5,100.8,1067.9,103.2,1069.5,102.9z"/>
		<path class="st2" d="M1081.1,102.9c3.2-0.6,2.8-2.9-0.4-2.4C1079.1,100.8,1079.5,103.1,1081.1,102.9z"/>
		<path class="st2" d="M1094.5,103.9c1.6-0.3,1.2-2.6-0.4-2.4C1090.9,102.1,1091.3,104.5,1094.5,103.9z"/>
		<path class="st2" d="M1094.6,95.1c1.6-0.3,1.2-2.6-0.4-2.4C1092.6,93.1,1093,95.4,1094.6,95.1z"/>
		<path class="st2" d="M1106.1,94.6c1.6-0.3,1.2-2.6-0.4-2.4C1104.1,92.5,1104.5,94.9,1106.1,94.6z"/>
		<path class="st2" d="M1075.9,120.8c3.2-0.6,2.8-2.9-0.4-2.4C1073.9,118.7,1074.3,121.1,1075.9,120.8z"/>
		<path class="st2" d="M1053.2,123.3c3.2-0.6,2.8-2.9-0.4-2.4C1049.6,121.5,1050,123.8,1053.2,123.3z"/>
		<path class="st2" d="M1062.3,109c1.6-0.3,1.2-2.6-0.4-2.4C1058.7,107.2,1059.1,109.6,1062.3,109z"/>
		<path class="st2" d="M1016.6,121.3c1.6-0.3,1.2-2.6-0.4-2.4C1013,119.5,1013.4,121.9,1016.6,121.3z"/>
		<path class="st2" d="M1010.3,132.7c1.6-0.3,1.2-2.6-0.4-2.4C1006.7,130.9,1007.1,133.2,1010.3,132.7z"/>
		<path class="st2" d="M996.5,138.9l-0.4-2.4C992.9,137.1,993.3,139.5,996.5,138.9z"/>
		<path class="st2" d="M989.1,143.7c3.2-0.6,2.8-2.9-0.4-2.4C987,141.6,987.5,143.9,989.1,143.7z"/>
	</g>
	<g>
		<path class="st2" d="M1032.5,108.5c3.2-0.6,2.8-2.9-0.4-2.4C1030.5,106.4,1030.9,108.8,1032.5,108.5z"/>
		<path class="st2" d="M1023.7,114.9c1.6-0.3,1.2-2.6-0.4-2.4C1021.7,112.8,1022.1,115.2,1023.7,114.9z"/>
		<path class="st2" d="M1013.6,123.5c3.2-0.6,2.8-2.9-0.4-2.4C1011.6,121.4,1012,123.7,1013.6,123.5z"/>
		<path class="st2" d="M1003.1,119.9c3.2-0.6,2.8-2.9-0.4-2.4C1001.1,117.8,1001.5,120.2,1003.1,119.9z"/>
		<path class="st2" d="M995.4,123.2c3.2-0.6,2.8-2.9-0.4-2.4C993.4,121.1,993.8,123.5,995.4,123.2z"/>
		<path class="st2" d="M981.7,130c3.2-0.6,2.8-2.9-0.4-2.4C978.1,128.2,978.5,130.5,981.7,130z"/>
		<path class="st2" d="M967.1,131c1.6-0.3,1.2-2.6-0.4-2.4C965,129,965.5,131.3,967.1,131z"/>
		<path class="st2" d="M959.5,135.3c1.6-0.3,1.2-2.6-0.4-2.4C957.5,133.2,957.9,135.6,959.5,135.3z"/>
		<path class="st2" d="M952,139.5c1.6-0.3,1.2-2.6-0.4-2.4C950,137.4,950.4,139.8,952,139.5z"/>
		<path class="st2" d="M939.3,142.2c3.2-0.6,2.8-2.9-0.4-2.4C935.6,140.4,936.1,142.8,939.3,142.2z"/>
		<path class="st2" d="M919.1,140.3c3.2-0.6,2.8-2.9-0.4-2.4C915.5,138.5,915.9,140.9,919.1,140.3z"/>
		<path class="st2" d="M934.9,136.1c1.6-0.3,1.2-2.6-0.4-2.4C932.9,134,933.3,136.4,934.9,136.1z"/>
		<path class="st2" d="M944.2,132.6c1.6-0.3,1.2-2.6-0.4-2.4C940.6,130.8,941,133.1,944.2,132.6z"/>
		<path class="st2" d="M942.7,124c3.2-0.6,2.8-2.9-0.4-2.4C940.7,122,941.1,124.3,942.7,124z"/>
		<path class="st2" d="M958.9,122.2c1.6-0.3,1.2-2.6-0.4-2.4C955.3,120.4,955.7,122.8,958.9,122.2z"/>
		<path class="st2" d="M955.5,131.1c3.2-0.6,2.8-2.9-0.4-2.4C953.5,129,953.9,131.4,955.5,131.1z"/>
		<path class="st2" d="M972.5,124.3c1.6-0.3,1.2-2.6-0.4-2.4C968.9,122.4,969.3,124.8,972.5,124.3z"/>
		<path class="st2" d="M985.2,121.1c1.6-0.3,1.2-2.6-0.4-2.4C983.1,119,983.6,121.4,985.2,121.1z"/>
		<path class="st2" d="M972.9,117.4c3.2-0.6,2.8-2.9-0.4-2.4C970.9,115.3,971.3,117.6,972.9,117.4z"/>
		<path class="st2" d="M990.2,111.9c1.6-0.3,1.2-2.6-0.4-2.4C988.2,109.8,988.6,112.2,990.2,111.9z"/>
		<path class="st2" d="M1001.7,111.9c3.2-0.6,2.8-2.9-0.4-2.4C999.7,109.8,1000.1,112.2,1001.7,111.9z"/>
		<path class="st2" d="M1015.1,113c1.6-0.3,1.2-2.6-0.4-2.4C1011.5,111.2,1011.9,113.5,1015.1,113z"/>
		<path class="st2" d="M1015.3,104.2c1.6-0.3,1.2-2.6-0.4-2.4C1013.2,102.1,1013.7,104.5,1015.3,104.2z"/>
		<path class="st2" d="M1026.7,103.7c1.6-0.3,1.2-2.6-0.4-2.4C1024.7,101.6,1025.1,103.9,1026.7,103.7z"/>
		<path class="st2" d="M1046,100.3l-0.4-2.4C1042.4,98.5,1042.8,100.9,1046,100.3z"/>
		<path class="st2" d="M1052.9,92.8c1.6-0.3,1.2-2.6-0.4-2.4C1049.3,91,1049.7,93.3,1052.9,92.8z"/>
		<path class="st2" d="M996.6,129.8c3.2-0.6,2.8-2.9-0.4-2.4C994.6,127.7,995,130.1,996.6,129.8z"/>
		<path class="st2" d="M973.9,132.3c1.6-0.3,1.2-2.6-0.4-2.4C970.3,130.5,970.7,132.9,973.9,132.3z"/>
		<path class="st2" d="M983,118.1c1.6-0.3,1.2-2.6-0.4-2.4C979.4,116.2,979.8,118.6,983,118.1z"/>
		<path class="st2" d="M937.2,130.4c1.6-0.3,1.2-2.6-0.4-2.4C933.6,128.6,934,130.9,937.2,130.4z"/>
		<path class="st2" d="M930.9,141.7c1.6-0.3,1.2-2.6-0.4-2.4C927.3,139.9,927.7,142.3,930.9,141.7z"/>
	</g>
</g>
<g>
	<g>
		<path class="st3" d="M1128.9,775.5c3.2-0.6,2.8-2.9-0.4-2.4C1126.9,773.4,1127.3,775.7,1128.9,775.5z"/>
		<path class="st3" d="M1120.1,781.9c1.6-0.3,1.2-2.6-0.4-2.4C1118.1,779.8,1118.5,782.1,1120.1,781.9z"/>
		<path class="st3" d="M1110,790.4c3.2-0.6,2.8-2.9-0.4-2.4C1108,788.3,1108.4,790.7,1110,790.4z"/>
		<path class="st3" d="M1099.5,786.9c3.2-0.6,2.8-2.9-0.4-2.4C1097.5,784.8,1097.9,787.2,1099.5,786.9z"/>
		<path class="st3" d="M1091.8,790.2c3.2-0.6,2.8-2.9-0.4-2.4C1089.8,788.1,1090.2,790.5,1091.8,790.2z"/>
		<path class="st3" d="M1078.1,796.9c3.2-0.6,2.8-2.9-0.4-2.4C1074.5,795.1,1074.9,797.5,1078.1,796.9z"/>
		<path class="st3" d="M1063.4,798c1.6-0.3,1.2-2.6-0.4-2.4C1061.4,795.9,1061.8,798.3,1063.4,798z"/>
		<path class="st3" d="M1055.9,802.2c1.6-0.3,1.2-2.6-0.4-2.4C1053.9,800.2,1054.3,802.5,1055.9,802.2z"/>
		<path class="st3" d="M1048.4,806.5c1.6-0.3,1.2-2.6-0.4-2.4C1046.4,804.4,1046.8,806.8,1048.4,806.5z"/>
		<path class="st3" d="M1035.6,809.2c3.2-0.6,2.8-2.9-0.4-2.4C1032,807.4,1032.4,809.7,1035.6,809.2z"/>
		<path class="st3" d="M1015.5,807.3c3.2-0.6,2.8-2.9-0.4-2.4C1011.9,805.5,1012.3,807.8,1015.5,807.3z"/>
		<path class="st3" d="M1031.3,803.1c1.6-0.3,1.2-2.6-0.4-2.4C1029.3,801,1029.7,803.4,1031.3,803.1z"/>
		<path class="st3" d="M1040.6,799.5c1.6-0.3,1.2-2.6-0.4-2.4C1037,797.7,1037.4,800.1,1040.6,799.5z"/>
		<path class="st3" d="M1039.1,791c3.2-0.6,2.8-2.9-0.4-2.4C1037.1,788.9,1037.5,791.3,1039.1,791z"/>
		<path class="st3" d="M1055.3,789.2c1.6-0.3,1.2-2.6-0.4-2.4C1051.7,787.4,1052.1,789.7,1055.3,789.2z"/>
		<path class="st3" d="M1053.5,797.8c1.6-0.3,1.2-2.6-0.4-2.4C1049.9,796,1050.3,798.3,1053.5,797.8z"/>
		<path class="st3" d="M1068.9,791.2c3.2-0.6,2.8-2.9-0.4-2.4C1065.2,789.4,1065.6,791.8,1068.9,791.2z"/>
		<path class="st3" d="M1081.5,788.1c3.2-0.6,2.8-2.9-0.4-2.4C1079.5,786,1079.9,788.3,1081.5,788.1z"/>
		<path class="st3" d="M1070.9,784c1.6-0.3,1.2-2.6-0.4-2.4C1067.3,782.2,1067.7,784.6,1070.9,784z"/>
		<path class="st3" d="M1086.5,778.9c1.6-0.3,1.2-2.6-0.4-2.4C1084.5,776.8,1084.9,779.2,1086.5,778.9z"/>
		<path class="st3" d="M1098.1,778.9c3.2-0.6,2.8-2.9-0.4-2.4C1096.1,776.8,1096.5,779.1,1098.1,778.9z"/>
		<path class="st3" d="M1111.5,779.9c1.6-0.3,1.2-2.6-0.4-2.4C1107.9,778.1,1108.3,780.5,1111.5,779.9z"/>
		<path class="st3" d="M1111.6,771.1c1.6-0.3,1.2-2.6-0.4-2.4C1109.6,769.1,1110,771.4,1111.6,771.1z"/>
		<path class="st3" d="M1123.1,770.6c1.6-0.3,1.2-2.6-0.4-2.4C1121.1,768.5,1121.5,770.9,1123.1,770.6z"/>
		<path class="st3" d="M1092.9,796.8c3.2-0.6,2.8-2.9-0.4-2.4C1090.9,794.7,1091.3,797.1,1092.9,796.8z"/>
		<path class="st3" d="M1070.2,799.3c3.2-0.6,2.8-2.9-0.4-2.4C1066.6,797.5,1067,799.8,1070.2,799.3z"/>
		<path class="st3" d="M1079.3,785c1.6-0.3,1.2-2.6-0.4-2.4C1075.7,783.2,1076.1,785.6,1079.3,785z"/>
		<path class="st3" d="M1033.6,797.3c1.6-0.3,1.2-2.6-0.4-2.4C1030,795.5,1030.4,797.9,1033.6,797.3z"/>
		<path class="st3" d="M1027.3,808.7c1.6-0.3,1.2-2.6-0.4-2.4C1023.7,806.9,1024.1,809.2,1027.3,808.7z"/>
		<path class="st3" d="M1013.5,814.9l-0.4-2.4C1009.9,813.1,1010.3,815.5,1013.5,814.9z"/>
		<path class="st3" d="M1006.1,819.7c3.2-0.6,2.8-2.9-0.4-2.4C1004,817.6,1004.5,819.9,1006.1,819.7z"/>
	</g>
	<g>
		<path class="st3" d="M1049.5,784.5c3.2-0.6,2.8-2.9-0.4-2.4C1047.5,782.4,1047.9,784.8,1049.5,784.5z"/>
		<path class="st3" d="M1040.7,790.9c1.6-0.3,1.2-2.6-0.4-2.4C1038.7,788.8,1039.1,791.2,1040.7,790.9z"/>
		<path class="st3" d="M1030.6,799.5c3.2-0.6,2.8-2.9-0.4-2.4C1028.6,797.4,1029,799.7,1030.6,799.5z"/>
		<path class="st3" d="M1020.1,795.9c3.2-0.6,2.8-2.9-0.4-2.4C1018.1,793.8,1018.5,796.2,1020.1,795.9z"/>
		<path class="st3" d="M1012.4,799.2c3.2-0.6,2.8-2.9-0.4-2.4C1010.4,797.1,1010.8,799.5,1012.4,799.2z"/>
		<path class="st3" d="M998.7,806c3.2-0.6,2.8-2.9-0.4-2.4C995.1,804.2,995.5,806.5,998.7,806z"/>
		<path class="st3" d="M984.1,807c1.6-0.3,1.2-2.6-0.4-2.4C982,805,982.5,807.3,984.1,807z"/>
		<path class="st3" d="M976.5,811.3c1.6-0.3,1.2-2.6-0.4-2.4C974.5,809.2,974.9,811.6,976.5,811.3z"/>
		<path class="st3" d="M969,815.5c1.6-0.3,1.2-2.6-0.4-2.4C967,813.4,967.4,815.8,969,815.5z"/>
		<path class="st3" d="M956.3,818.2c3.2-0.6,2.8-2.9-0.4-2.4C952.6,816.4,953.1,818.8,956.3,818.2z"/>
		<path class="st3" d="M936.1,816.3c3.2-0.6,2.8-2.9-0.4-2.4C932.5,814.5,932.9,816.9,936.1,816.3z"/>
		<path class="st3" d="M951.9,812.1c1.6-0.3,1.2-2.6-0.4-2.4C949.9,810,950.3,812.4,951.9,812.1z"/>
		<path class="st3" d="M961.2,808.6c1.6-0.3,1.2-2.6-0.4-2.4C957.6,806.8,958,809.1,961.2,808.6z"/>
		<path class="st3" d="M959.7,800c3.2-0.6,2.8-2.9-0.4-2.4C957.7,798,958.1,800.3,959.7,800z"/>
		<path class="st3" d="M975.9,798.2c1.6-0.3,1.2-2.6-0.4-2.4C972.3,796.4,972.7,798.8,975.9,798.2z"/>
		<path class="st3" d="M972.5,807.1c3.2-0.6,2.8-2.9-0.4-2.4C970.5,805,970.9,807.4,972.5,807.1z"/>
		<path class="st3" d="M989.5,800.3c1.6-0.3,1.2-2.6-0.4-2.4C985.9,798.4,986.3,800.8,989.5,800.3z"/>
		<path class="st3" d="M1002.2,797.1c1.6-0.3,1.2-2.6-0.4-2.4C1000.1,795,1000.6,797.4,1002.2,797.1z"/>
		<path class="st3" d="M989.9,793.4c3.2-0.6,2.8-2.9-0.4-2.4C987.9,791.3,988.3,793.6,989.9,793.4z"/>
		<path class="st3" d="M1007.2,787.9c1.6-0.3,1.2-2.6-0.4-2.4C1005.2,785.8,1005.6,788.2,1007.2,787.9z"/>
		<path class="st3" d="M1018.7,787.9c3.2-0.6,2.8-2.9-0.4-2.4C1016.7,785.8,1017.1,788.2,1018.7,787.9z"/>
		<path class="st3" d="M1032.1,789c1.6-0.3,1.2-2.6-0.4-2.4C1028.5,787.2,1028.9,789.5,1032.1,789z"/>
		<path class="st3" d="M1032.3,780.2c1.6-0.3,1.2-2.6-0.4-2.4C1030.2,778.1,1030.7,780.5,1032.3,780.2z"/>
		<path class="st3" d="M1043.7,779.7c1.6-0.3,1.2-2.6-0.4-2.4C1041.7,777.6,1042.1,779.9,1043.7,779.7z"/>
		<path class="st3" d="M1063,776.3l-0.4-2.4C1059.4,774.5,1059.8,776.9,1063,776.3z"/>
		<path class="st3" d="M1069.9,768.8c1.6-0.3,1.2-2.6-0.4-2.4C1066.3,767,1066.7,769.3,1069.9,768.8z"/>
		<path class="st3" d="M1013.6,805.8c3.2-0.6,2.8-2.9-0.4-2.4C1011.6,803.7,1012,806.1,1013.6,805.8z"/>
		<path class="st3" d="M990.9,808.3c1.6-0.3,1.2-2.6-0.4-2.4C987.3,806.5,987.7,808.9,990.9,808.3z"/>
		<path class="st3" d="M1000,794.1c1.6-0.3,1.2-2.6-0.4-2.4C996.4,792.2,996.8,794.6,1000,794.1z"/>
		<path class="st3" d="M954.2,806.4c1.6-0.3,1.2-2.6-0.4-2.4C950.6,804.6,951,806.9,954.2,806.4z"/>
		<path class="st3" d="M947.9,817.7c1.6-0.3,1.2-2.6-0.4-2.4C944.3,815.9,944.7,818.3,947.9,817.7z"/>
	</g>
</g>
<g>
	<g>
		<path class="st4" d="M62.9,432c-20.7,5.3-16.8,20.5,3.9,15.3C77.2,444.7,73.3,429.4,62.9,432z"/>
		<path class="st4" d="M117.3,385.7c-10.4,2.6-6.5,17.9,3.9,15.3C131.5,398.3,127.6,383.1,117.3,385.7z"/>
		<path class="st4" d="M178.8,324.5c-20.7,5.3-16.8,20.5,3.9,15.3C193.1,337.1,189.2,321.8,178.8,324.5z"/>
		<path class="st4" d="M249.5,342.3c-20.7,5.3-16.8,20.5,3.9,15.3C263.7,354.9,259.8,339.6,249.5,342.3z"/>
		<path class="st4" d="M298.1,316.9c-20.7,5.3-16.8,20.5,3.9,15.3C312.4,329.5,308.5,314.3,298.1,316.9z"/>
		<path class="st4" d="M384.3,265.7c-20.7,5.3-16.8,20.5,3.9,15.3C408.9,275.7,405,260.4,384.3,265.7z"/>
		<path class="st4" d="M479.8,251.1c-10.3,2.6-6.5,17.9,3.9,15.3C494,263.8,490.1,248.5,479.8,251.1z"/>
		<path class="st4" d="M526.9,219.6c-10.3,2.6-6.5,17.9,3.9,15.3C541.1,232.3,537.2,217,526.9,219.6z"/>
		<path class="st4" d="M574,188.1c-10.4,2.6-6.5,17.9,3.9,15.3C588.2,200.8,584.3,185.5,574,188.1z"/>
		<path class="st4" d="M656,164c-20.7,5.3-16.8,20.5,3.9,15.3C680.6,174,676.7,158.7,656,164z"/>
		<path class="st4" d="M788.7,166c-20.7,5.3-16.8,20.5,3.9,15.3C813.3,176,809.4,160.7,788.7,166z"/>
		<path class="st4" d="M687.6,201.5c-10.4,2.6-6.5,17.9,3.9,15.3C701.8,214.1,697.9,198.9,687.6,201.5z"/>
		<path class="st4" d="M628.6,229.5c-10.4,2.6-6.5,17.9,3.9,15.3C653.2,239.5,649.3,224.2,628.6,229.5z"/>
		<path class="st4" d="M642.6,284.5c-20.7,5.3-16.8,20.6,3.9,15.3C656.8,297.2,652.9,281.9,642.6,284.5z"/>
		<path class="st4" d="M537.5,304.8c-10.3,2.6-6.5,17.9,3.9,15.3C562.1,314.8,558.2,299.5,537.5,304.8z"/>
		<path class="st4" d="M545,247.5c-10.3,2.6-6.5,17.9,3.9,15.3C569.6,257.6,565.7,242.3,545,247.5z"/>
		<path class="st4" d="M447.7,298.3c-20.7,5.3-16.8,20.5,3.9,15.3C472.3,308.3,468.4,293.1,447.7,298.3z"/>
		<path class="st4" d="M366.5,325.5c-20.7,5.3-16.8,20.5,3.9,15.3C380.7,338.2,376.8,322.9,366.5,325.5z"/>
		<path class="st4" d="M437.9,346.4c-10.3,2.6-6.5,17.9,3.9,15.3C462.5,356.4,458.6,341.1,437.9,346.4z"/>
		<path class="st4" d="M338.3,388c-10.3,2.6-6.5,17.9,3.9,15.3C352.5,400.6,348.6,385.4,338.3,388z"/>
		<path class="st4" d="M262.7,394.2c-20.7,5.3-16.8,20.5,3.9,15.3C276.9,406.9,273.1,391.6,262.7,394.2z"/>
		<path class="st4" d="M174.5,393.9c-10.3,2.6-6.5,17.9,3.9,15.3C199.1,403.9,195.2,388.6,174.5,393.9z"/>
		<path class="st4" d="M178.1,451.5c-10.4,2.6-6.5,17.9,3.9,15.3C192.3,464.2,188.5,448.9,178.1,451.5z"/>
		<path class="st4" d="M103.3,460.8c-10.4,2.6-6.5,17.9,3.9,15.3C117.6,473.4,113.7,458.2,103.3,460.8z"/>
		<path class="st4" d="M287.2,274.1c-20.7,5.3-16.8,20.5,3.9,15.3C301.5,286.8,297.6,271.5,287.2,274.1z"/>
		<path class="st4" d="M434.5,246.4c-20.7,5.3-16.8,20.5,3.9,15.3C459.1,256.4,455.2,241.1,434.5,246.4z"/>
		<path class="st4" d="M382.2,344.3c-10.3,2.6-6.5,17.9,3.9,15.3C406.8,354.3,402.9,339,382.2,344.3z"/>
		<path class="st4" d="M675.4,240.4c-10.4,2.6-6.5,17.9,3.9,15.3C700,250.4,696.1,235.1,675.4,240.4z"/>
		<path class="st4" d="M710.9,163c-10.4,2.6-6.5,17.9,3.9,15.3C735.4,173.1,731.5,157.8,710.9,163z"/>
		<path class="st4" d="M797.8,114.9l3.9,15.3C822.4,124.9,818.5,109.6,797.8,114.9z"/>
		<path class="st4" d="M844.1,80.3c-20.7,5.3-16.8,20.5,3.9,15.3C858.3,93,854.5,77.7,844.1,80.3z"/>
	</g>
	<g>
		<path class="st4" d="M577.6,332.5c-20.7,5.3-16.8,20.5,3.9,15.3C591.9,345.1,588,329.9,577.6,332.5z"/>
		<path class="st4" d="M632,286.1c-10.4,2.6-6.5,17.9,3.9,15.3C646.2,298.8,642.3,283.5,632,286.1z"/>
		<path class="st4" d="M693.5,224.9c-20.7,5.3-16.8,20.5,3.9,15.3C707.8,237.6,703.9,222.3,693.5,224.9z"/>
		<path class="st4" d="M764.2,242.7c-20.7,5.3-16.8,20.5,3.9,15.3C778.4,255.4,774.5,240.1,764.2,242.7z"/>
		<path class="st4" d="M812.8,217.3c-20.7,5.3-16.8,20.5,3.9,15.3C827.1,230,823.2,214.7,812.8,217.3z"/>
		<path class="st4" d="M899,166.1c-20.7,5.3-16.8,20.5,3.9,15.3C923.6,176.1,919.7,160.8,899,166.1z"/>
		<path class="st4" d="M994.5,151.6c-10.3,2.6-6.5,17.9,3.9,15.3C1008.7,164.2,1004.8,148.9,994.5,151.6z"/>
		<path class="st4" d="M1041.6,120.1c-10.3,2.6-6.5,17.9,3.9,15.3C1055.8,132.7,1051.9,117.4,1041.6,120.1z"/>
		<path class="st4" d="M1088.6,88.6c-10.4,2.6-6.5,17.9,3.9,15.3C1102.9,101.2,1099,85.9,1088.6,88.6z"/>
		<path class="st4" d="M1170.7,64.4c-20.7,5.3-16.8,20.5,3.9,15.3C1195.3,74.4,1191.4,59.2,1170.7,64.4z"/>
		<path class="st4" d="M1303.4,66.4c-20.7,5.3-16.8,20.6,3.9,15.3C1328,76.4,1324.1,61.2,1303.4,66.4z"/>
		<path class="st4" d="M1202.3,101.9c-10.3,2.6-6.5,17.9,3.9,15.3C1216.5,114.6,1212.6,99.3,1202.3,101.9z"/>
		<path class="st4" d="M1143.3,130c-10.3,2.6-6.5,17.9,3.9,15.3C1167.9,140,1164,124.7,1143.3,130z"/>
		<path class="st4" d="M1157.3,185c-20.7,5.3-16.8,20.5,3.9,15.3C1171.5,197.6,1167.6,182.3,1157.3,185z"/>
		<path class="st4" d="M1052.2,205.2c-10.4,2.6-6.5,17.9,3.9,15.3C1076.8,215.2,1072.9,199.9,1052.2,205.2z"/>
		<path class="st4" d="M1070,145.3c-20.7,5.3-16.8,20.5,3.9,15.3C1084.3,158,1080.4,142.7,1070,145.3z"/>
		<path class="st4" d="M962.4,198.8c-10.4,2.6-6.5,17.9,3.9,15.3C987,208.8,983.1,193.5,962.4,198.8z"/>
		<path class="st4" d="M881.1,226c-10.3,2.6-6.5,17.9,3.9,15.3C895.4,238.6,891.5,223.3,881.1,226z"/>
		<path class="st4" d="M963,244.2c-20.7,5.3-16.8,20.5,3.9,15.3C977.2,256.8,973.3,241.5,963,244.2z"/>
		<path class="st4" d="M853,288.4c-10.3,2.6-6.5,17.9,3.9,15.3C867.2,301.1,863.3,285.8,853,288.4z"/>
		<path class="st4" d="M777.4,294.7c-20.7,5.3-16.8,20.5,3.9,15.3C791.6,307.3,787.8,292,777.4,294.7z"/>
		<path class="st4" d="M689.2,294.3c-10.3,2.6-6.5,17.9,3.9,15.3C713.7,304.3,709.9,289.1,689.2,294.3z"/>
		<path class="st4" d="M692.8,352c-10.4,2.6-6.5,17.9,3.9,15.3C707,364.6,703.2,349.3,692.8,352z"/>
		<path class="st4" d="M618,361.2c-10.4,2.6-6.5,17.9,3.9,15.3C632.3,373.9,628.4,358.6,618,361.2z"/>
		<path class="st4" d="M493.8,392.9l3.9,15.3C518.4,402.9,514.5,387.6,493.8,392.9z"/>
		<path class="st4" d="M452.2,445.8c-10.3,2.6-6.5,17.9,3.9,15.3C476.8,455.7,472.9,440.5,452.2,445.8z"/>
		<path class="st4" d="M801.9,174.6c-20.7,5.3-16.8,20.5,3.9,15.3C816.2,187.2,812.3,171.9,801.9,174.6z"/>
		<path class="st4" d="M949.2,146.8c-10.4,2.6-6.5,17.9,3.9,15.3C973.8,156.8,969.9,141.6,949.2,146.8z"/>
		<path class="st4" d="M896.9,244.7c-10.3,2.6-6.5,17.9,3.9,15.3C921.5,254.7,917.7,239.4,896.9,244.7z"/>
		<path class="st4" d="M1190.1,140.8c-10.4,2.6-6.5,17.9,3.9,15.3C1214.7,150.8,1210.8,135.5,1190.1,140.8z"/>
		<path class="st4" d="M1225.5,63.5c-10.4,2.6-6.5,17.9,3.9,15.3C1250.1,73.5,1246.2,58.2,1225.5,63.5z"/>
		<path class="st4" d="M1312.5,15.3l3.9,15.3C1337.1,25.3,1333.2,10.1,1312.5,15.3z"/>
	</g>
</g>
<g>
	<g>
		<radialGradient id="SVGID_1_" cx="680.1042" cy="505" r="338.5489" gradientUnits="userSpaceOnUse">
			<stop offset="1.818180e-02" style="stop-color:#FBD08D;stop-opacity:0"/>
			<stop offset="3.676073e-02" style="stop-color:#F4CB8A;stop-opacity:1.892298e-02"/>
			<stop offset="0.2479" style="stop-color:#AB906B;stop-opacity:0.2339"/>
			<stop offset="0.4463" style="stop-color:#6E5F50;stop-opacity:0.4361"/>
			<stop offset="0.6263" style="stop-color:#3F383C;stop-opacity:0.6194"/>
			<stop offset="0.7842" style="stop-color:#1C1D2D;stop-opacity:0.7803"/>
			<stop offset="0.9142" style="stop-color:#080C24;stop-opacity:0.9126"/>
			<stop offset="1" style="stop-color:#000621"/>
		</radialGradient>
		<path class="st5" d="M1018.7,505c0,187-151.6,338.5-338.5,338.5c-187,0-338.5-151.6-338.5-338.5c0-187,151.6-338.5,338.5-338.5    C867.1,166.5,1018.7,318,1018.7,505z"/>
		<g>
			<path class="st6" d="M196.9,683.8c70.2,35.6,235.8,37.6,432.3,5.2c138.8-22.9,275.1-59.9,383.9-104.2     c106.6-43.5,176-90.2,190.4-128.4c0.1-0.3,0.2-0.5,0.3-0.8l-27.3,4.6c-0.1,0.2-0.2,0.5-0.2,0.7     c-19.2,50.7-110.5,96.9-183.8,126.8C889.7,629.5,760.6,666.4,629.7,688c-185.3,30.6-341.8,27-408.5-3c0,0,0,0,0,0     c-26.5-16-36.4-33.7-29.8-56l-27,3.8C159,653.2,170.2,670.3,196.9,683.8z"/>
			<path class="st7" d="M1231.3,450.9l-25.4,4.3c-0.1,0.3-0.2,0.5-0.3,0.8c-20.9,55.4-130.4,107-193.8,132.9     c-108.9,44.4-244.8,80-383.7,102.8C431.4,724.2,265.9,721,195.8,685c0,0,0,0,0,0c-27.9-14-39.2-31.3-32.9-53.9l-25.6,4.9     c-23.2,83,192.2,111.2,488.3,62.4c301.6-49.7,572.6-160.1,605.4-246.7C1231.1,451.4,1231.2,451.2,1231.3,450.9z"/>
			<path class="st8" d="M1135.8,467.5c-7.6,20-26.4,40-57.7,60.9c-28.6,19.2-66.3,38.4-112.1,57.1c-94,38.3-211.8,70.3-331.7,90.1     c-169.9,28-312.7,23.4-373.9-4.6c0,0,0,0,0,0c-24.9-14-34.3-29.3-28-50.6l-36.8,6.3c-3.5,13.8,0,32,30.3,47.4     c66.1,33.5,222,35.4,407.1,4.9c130.7-21.5,259.1-56.4,361.5-98.2c49.7-20.3,90.6-41.1,121.4-61.8c30.6-20.6,50.2-40.4,56.7-57.5     c0.1-0.2,0.2-0.4,0.2-0.7L1136,467C1135.9,467.2,1135.9,467.4,1135.8,467.5z"/>
			<path class="st9" d="M1174.4,461.1c-29.4,77.6-272.4,176.7-542.8,221.3c-265.3,43.7-458.3,18.8-437.9-55.5l-2.3,2     c-6.6,22.4,3.3,40,29.8,56c0,0,0,0,0,0c66.7,30,223.2,33.5,408.5,3c130.9-21.6,259.8-57.6,362.4-99.5     c73.3-29.9,164.8-76.6,183.9-127.2c0.1-0.2,0.3-0.9,0.4-1.1l-1.8,0.3C1174.6,460.7,1174.5,460.9,1174.4,461.1z"/>
			<path class="st10" d="M631.7,682.4c270.4-44.6,513.4-143.7,542.8-221.3c0.1-0.2,0.2-0.5,0.2-0.7l-1.8,0.3     c-0.1,0.2-0.2,0.4-0.2,0.7c-6.4,17-26,36.9-56.7,57.5c-30.9,20.7-71.7,41.5-121.4,61.8c-102.4,41.8-230.8,76.6-361.5,98.2     c-185,30.5-341,28.6-407.1-4.9c-30.3-15.4-33.9-33.6-30.3-47.4l-1.8,0.3C173.3,701.2,366.4,726.2,631.7,682.4z"/>
			<path class="st11" d="M265.3,661.2c60.5,30.7,203.3,32.4,372.7,4.4c119.7-19.7,237.3-51.7,331-89.9     c45.5-18.5,82.9-37.6,111.1-56.5c27.2-18.3,45.2-36.3,50.7-50.9c0.1-0.1,0.1-0.3,0.2-0.5l-126,21.4     C985.5,540,826.7,604.7,650,633.8c-172.8,28.5-298.7,12.4-286.6-35.7l-125.9,21.4C235,630.3,237.2,647,265.3,661.2z"/>
			<path class="st12" d="M260.4,671C260.4,671,260.4,671,260.4,671c61.1,28,204,32.6,373.9,4.6c119.9-19.8,237.7-51.7,331.8-90.1     c45.8-18.7,83.5-37.9,112.1-57.1c31.2-21,50.1-40.9,57.7-60.9c0.1-0.2,0.1-0.3,0.2-0.5l-2.5,0.4c-0.1,0.2-0.1,0.3-0.2,0.5     c-26.9,71.1-249.5,161.9-497.2,202.7c-242.8,40-419.6,17.2-401.2-50.7l-2.5,0.4C226.1,641.7,235.6,657,260.4,671z"/>
			<path class="st13" d="M1130.8,468.3c-5.5,14.6-23.5,32.7-50.7,50.9c-28.2,18.9-65.6,37.9-111.1,56.5     c-93.8,38.2-211.4,70.2-331,89.9c-169.4,27.9-312.3,26.2-372.7-4.4c-28.1-14.2-30.3-31-27.8-41.7l-2.6,0.4     c-18.4,67.9,158.4,90.7,401.2,50.7c247.7-40.8,470.3-131.6,497.2-202.7c0.1-0.2,0.1-0.3,0.2-0.5l-2.5,0.4     C1130.9,468,1130.9,468.2,1130.8,468.3z"/>
			<path class="st14" d="M1203.5,456.4c-14.4,38.1-83.8,84.9-190.4,128.4C904.3,629.1,768,666.1,629.2,689     c-196.5,32.4-362.2,30.4-432.3-5.2c-26.6-13.5-37.7-31.4-32.2-51.9l-1.8-0.8c-6.3,22.6,4.9,39.9,32.9,53.9c0,0,0,0,0,0     c70.1,36,235.7,39.2,432.3,6.7c138.9-22.9,275-59,383.9-103.4c63.4-25.9,172.8-77.2,193.8-132.6c0.1-0.3,0.1-0.4,0.2-0.7     l-2.2,0.4C1203.7,455.7,1203.6,456.1,1203.5,456.4z"/>
		</g>
		<path class="st15" d="M742.7,290.8c-93.4-28-190.9,8.8-244.1,84.3c89.7,4.5,198.4-5.9,303.4-56.5    C784.1,306.7,764.3,297.2,742.7,290.8z"/>
		<path class="st16" d="M615.8,714.2c116.1,34.8,238.4-30.4,274.4-145.8c-140.4,74.4-290.1,73.5-393.4,58.8    C524.3,667.5,565.3,699,615.8,714.2z"/>
		<path class="st17" d="M894.4,451.9c-155.6,92.8-326.7,87.1-435.5,69c3.2,38.4,16.5,74.9,37.8,106.2    c103.3,14.7,253,15.7,393.4-58.8c0.3-0.8,0.5-1.6,0.8-2.4C902.4,527.5,903,488.4,894.4,451.9z"/>
		<path class="st18" d="M894.4,451.9c-5.1-21.5-13.3-42-24.4-61c-142.8,86.8-299.3,89.9-408.9,75.9c-3,18.2-3.6,36.3-2.2,54    C567.7,539,738.8,544.7,894.4,451.9z"/>
		<path class="st19" d="M870,391c-16.7-28.6-39.8-53.5-68.1-72.4c-105,50.6-213.7,61-303.4,56.5c-13.4,19-24,40.4-31,63.9    c-2.8,9.3-4.9,18.6-6.4,27.8C570.7,480.9,727.2,477.8,870,391z"/>
		
			<ellipse transform="matrix(0.9976 -6.909278e-02 6.909278e-02 0.9976 -35.9178 46.8049)" class="st16" cx="658.7" cy="542.6" rx="49.1" ry="12.5"/>
		
			<ellipse transform="matrix(0.9822 -0.1879 0.1879 0.9822 -102.7907 157.9123)" class="st20" cx="781.5" cy="621.1" rx="49.1" ry="12.5"/>
		
			<ellipse transform="matrix(0.9544 -0.2985 0.2985 0.9544 -68.4947 223.8777)" class="st21" cx="698.8" cy="336.2" rx="49.1" ry="18.5"/>
	</g>
	<g>
		<path class="st6" d="M193.3,623.2c19.2-50.7,110.6-97.1,183.9-127c102.6-41.8,231.2-76.8,362.1-98.4    c185.3-30.5,341.7-28.7,408,4.9c28.1,14.2,37.9,33.6,29.2,57.5l27.3-4.6c7.9-22.1-2.8-41.3-31-55.6    c-70.2-35.6-235.8-37.6-432.3-5.2C601.6,417.6,465.3,454.7,356.5,499c-106.6,43.5-176,90.2-190.4,128.4c-0.6,1.5-1.1,3-1.5,4.5    l27.2-4.6C192.3,625.9,192.7,624.5,193.3,623.2z"/>
		<path class="st7" d="M164.2,627.4c20.9-55.4,130.4-106.9,193.8-132.7c108.9-44.4,245.3-81.4,384.2-104.3    c196.7-32.4,362.5-30.4,432.8,5.3c29.5,14.9,39.9,35,31,59.5l25.4-4.3C1262,365,1044.6,335.5,744.1,385    c-301.6,49.7-572.7,160.2-605.4,246.8c-0.6,1.6-1.1,3.1-1.5,4.7l25.4-4.3C163,630.7,163.5,629,164.2,627.4z"/>
		<path class="st8" d="M1143.7,409.7c-66.1-33.5-222-35.4-407.1-4.9c-130.7,21.5-259.1,56.4-361.5,98.2    c-49.7,20.3-90.6,41.1-121.4,61.8c-30.6,20.6-50.2,40.5-56.7,57.5c-0.5,1.4-1,2.9-1.4,4.4l36.8-6.2c0.4-1.4,0.9-2.8,1.4-4.2    c7.6-20,26.4-40,57.7-60.9c28.6-19.2,66.3-38.4,112.1-57.1c94-38.3,211.9-70.3,331.8-90.1c169.9-28,313.1-26.2,373.9,4.6    c26.5,13.4,35.2,31.2,26.7,54.4l36.9-6.3C1178,446.6,1176.8,426.5,1143.7,409.7z"/>
		<path class="st9" d="M1147.2,402.7c-66.3-33.6-222.6-35.5-408-4.9c-130.9,21.6-259.5,56.6-362.1,98.4    c-73.3,29.9-164.8,76.3-183.9,127c-0.5,1.4-1,2.8-1.4,4.1l1.9-0.3c0.4-1.4,0.9-2.9,1.4-4.4c29.4-77.6,272.4-176.7,542.8-221.3    c269.6-44.4,464.7-17.9,436.7,59.2l1.8-0.3C1185.2,436.3,1175.3,417,1147.2,402.7z"/>
		<path class="st10" d="M197,622.3c6.4-17,26-36.9,56.7-57.5c30.9-20.7,71.7-41.5,121.4-61.8c102.4-41.8,230.8-76.6,361.5-98.2    c185-30.5,341-28.6,407.1,4.9c33.1,16.8,34.3,36.9,29.2,51.1l1.8-0.3c28-77.1-167.1-103.6-436.7-59.2    c-270.4,44.6-513.4,143.7-542.8,221.3c-0.6,1.5-1,2.9-1.4,4.4l1.8-0.3C196,625.1,196.4,623.7,197,622.3z"/>
		<path class="st11" d="M364.5,594.7c19.2-50.8,178.2-115.6,355-144.8c176.9-29.2,304.7-11.6,285.5,39.2c0,0.1-0.1,0.1-0.1,0.2    l126-21.4c3.7-10.3,4.9-29.4-26.7-45.4c-60.5-30.7-203.3-32.4-372.7-4.4c-119.7,19.7-237.3,51.7-331,89.9    c-45.5,18.5-82.9,37.6-111.1,56.5c-27.2,18.3-45.2,36.3-50.7,50.9c-0.5,1.3-0.9,2.6-1.3,4.1l125.9-21.4    C363.7,597,364.1,595.8,364.5,594.7z"/>
		<path class="st12" d="M236.3,615.8c26.9-71.1,249.5-161.9,497.2-202.7c247.2-40.7,425.9-16.4,400,54.4l2.5-0.4    c8.5-23.1-0.2-40.9-26.7-54.4c-60.8-30.8-204.1-32.6-373.9-4.6c-119.9,19.8-237.8,51.8-331.8,90.1    c-45.8,18.7-83.6,37.9-112.1,57.1c-31.2,21-50.1,40.9-57.7,60.9c-0.5,1.4-1,2.8-1.4,4.2l2.6-0.4    C235.3,618.6,235.7,617.2,236.3,615.8z"/>
		<path class="st13" d="M733.5,413.1c-247.7,40.8-470.3,131.6-497.2,202.7c-0.5,1.4-1,2.8-1.3,4.2l2.6-0.4c0.3-1.5,0.8-2.9,1.3-4.1    c5.5-14.6,23.5-32.7,50.7-50.9c28.2-18.9,65.6-37.9,111.1-56.5c93.8-38.2,211.4-70.2,331-89.9c169.4-27.9,312.2-26.2,372.7,4.4    c31.6,16,30.4,35.1,26.7,45.4l2.5-0.4C1159.4,396.7,980.7,372.3,733.5,413.1z"/>
		<path class="st14" d="M1174.9,395.7c-70.3-35.7-236.2-37.7-432.8-5.3c-138.9,22.9-275.3,59.9-384.2,104.3    c-63.4,25.9-172.8,77.3-193.8,132.7c-0.6,1.6-1.2,3.3-1.6,4.9l2.1-0.4c0.4-1.5,0.9-3,1.5-4.5c14.4-38.1,83.8-84.9,190.4-128.4    c108.8-44.4,245.1-81.4,383.9-104.2c196.5-32.4,362.2-30.4,432.3,5.2c28.2,14.3,38.9,33.5,31,55.6l2.1-0.4    C1214.8,430.7,1204.4,410.6,1174.9,395.7z"/>
	</g>
</g>
<g>
	<path class="st22" d="M203,178c-6.4,0-6.4,10,0,10S209.4,178,203,178z"/>
	<path class="st22" d="M705,188c-6.4,0-6.4,10,0,10C711.4,198,711.4,188,705,188z"/>
	<path class="st22" d="M391,308c-6.4,0-6.4,10,0,10S397.4,308,391,308z"/>
	<path class="st23" d="M1105,750c-6.4,0-6.4,10,0,10S1111.4,750,1105,750z"/>
	<path class="st23" d="M1207,582c-6.4,0-6.4,10,0,10S1213.4,582,1207,582z"/>
	<path class="st23" d="M683,856c-6.4,0-6.4,10,0,10C689.4,866,689.4,856,683,856z"/>
	<path class="st23" d="M401,828c-6.4,0-6.4,10,0,10S407.4,828,401,828z"/>
	<path class="st23" d="M1057,222c-6.4,0-6.4,10,0,10S1063.4,222,1057,222z"/>
	<path class="st23" d="M1165,58c-6.4,0-6.4,10,0,10S1171.4,58,1165,58z"/>
	<g>
		<path class="st24" d="M355,563.1c-6,0-6,10,0,10C362,573.1,362,563.1,355,563.1z"/>
		<path class="st24" d="M417,533.1c-7,0-7,10,0,10C423,543.1,423,533.1,417,533.1z"/>
		<path class="st24" d="M1012,432.6c-6,0-6,10,0,10C1019,442.6,1019,432.6,1012,432.6z"/>
		<path class="st24" d="M1027,479.1c-6,0-6,10,0,10C1034,489.1,1034,479.1,1027,479.1z"/>
		<path class="st24" d="M940,527.1c-6,0-6,10,0,10C947,537.1,947,527.1,940,527.1z"/>
		<path class="st24" d="M511,645.6c-6,0-6,10,0,10C518,655.6,518,645.6,511,645.6z"/>
		<path class="st25" d="M787,429.6c-6,0-6,10,0,10C794,439.6,794,429.6,787,429.6z"/>
		<path class="st25" d="M421,629.1c-6,0-6,10,0,10C428,639.1,428,629.1,421,629.1z"/>
		<path class="st26" d="M898,425.1c-6,0-6,10,0,10C905,435.1,905,425.1,898,425.1z"/>
		<path class="st26" d="M253,597.6c-6,0-6,10,0,10C260,607.6,260,597.6,253,597.6z"/>
		<path class="st27" d="M571,456.6c-6,0-6,10,0,10C578,466.6,578,456.6,571,456.6z"/>
		<path class="st27" d="M1090,423.6c-6,0-6,10,0,10C1097,433.6,1097,423.6,1090,423.6z"/>
		<path class="st27" d="M1021,539.1c-6,0-6,10,0,10C1028,549.1,1028,539.1,1021,539.1z"/>
		<path class="st27" d="M345,662.1c-7,0-7,10,0,10C351,672.1,351,662.1,345,662.1z"/>
	</g>
	<path class="st24" d="M343,615.6c-6,0-6,10,0,10C350,625.6,350,615.6,343,615.6z"/>
</g>
<g>
	<radialGradient id="SVGID_2_" cx="153" cy="125" r="68" gradientUnits="userSpaceOnUse">
		<stop offset="0" style="stop-color:#FFFFFF"/>
		<stop offset="0.2048" style="stop-color:#BFBDBE;stop-opacity:0.8136"/>
		<stop offset="0.4119" style="stop-color:#858183;stop-opacity:0.6252"/>
		<stop offset="0.6025" style="stop-color:#575254;stop-opacity:0.4517"/>
		<stop offset="0.7702" style="stop-color:#363033;stop-opacity:0.2991"/>
		<stop offset="0.9084" style="stop-color:#221B1E;stop-opacity:0.1734"/>
		<stop offset="1" style="stop-color:#1B1417;stop-opacity:9.000000e-02"/>
	</radialGradient>
	<circle class="st28" cx="153" cy="125" r="68"/>
	<circle class="st29" cx="153" cy="125" r="28"/>
</g>
<linearGradient id="SVGID_3_" gradientUnits="userSpaceOnUse" x1="271.2456" y1="302.51" x2="300.0107" y2="302.51">
	<stop offset="0" style="stop-color:#22B573"/>
	<stop offset="1" style="stop-color:#0071BC"/>
</linearGradient>
<circle class="st30" cx="285.6" cy="302.5" r="14.4"/>
<g>
	<g>
		<polygon class="st31" points="197.3,875.3 263.2,852.5 266.1,868.9   "/>
		<path class="st32" d="M273.8,862.3c1.2,6.9-16.2,9.9-17.4,3c-1.2-6.9,1.7-13.3,6.5-14.1C267.7,850.4,272.6,855.4,273.8,862.3z"/>
	</g>
	<g>
		<polygon class="st31" points="147.1,933.2 166.1,926.5 166.9,931.3   "/>
		<path class="st32" d="M169.2,929.4c0.3,2-4.7,2.9-5,0.9c-0.3-2,0.5-3.8,1.9-4.1C167.4,925.9,168.8,927.4,169.2,929.4z"/>
	</g>
	<g>
		<polygon class="st31" points="73.3,905.3 139.2,882.5 142.1,898.9   "/>
		<path class="st32" d="M149.8,892.3c1.2,6.9-16.2,9.9-17.4,3c-1.2-6.9,1.7-13.3,6.5-14.1C143.7,880.4,148.6,885.4,149.8,892.3z"/>
	</g>
</g>
</svg>
